<svg xmlns="http://www.w3.org/2000/svg" width="972" height="490" viewBox="0 0 389 196" font-family="Arial, sans-serif">
  <defs>
    <marker id="ah" viewBox="0 0 8 6" refX="8" refY="3"
      markerWidth="4" markerHeight="3" orient="auto">
      <path d="M0.5,0.5 L7,3 L0.5,5.5" fill="none" stroke="#94A3B8"
        stroke-width="1.2" stroke-linejoin="round" stroke-linecap="round"/>
    </marker>
    <filter id="shadow" x="-6%" y="-8%" width="112%" height="128%">
      <feDropShadow dx="0" dy="0.5" stdDeviation="0.8"
        flood-color="#000" flood-opacity="0.05"/>
    </filter>
  </defs>
  <rect width="389" height="196" fill="#F8F9FB" rx="3"/>
  <text x="194" y="11" text-anchor="middle" font-size="6" font-weight="700" fill="#1E293B">PredictSwap Architecture</text>
  <rect x="119" y="16" width="150" height="10" rx="3" fill="#fff" stroke="#E2E5EA" stroke-width="0.4"/>
  <rect x="124" y="18.5" width="5" height="5" rx="2.5" fill="#fff" stroke="#E2E5EA" stroke-width="0.4"/>
  <text x="132" y="22.5" font-size="3.5" fill="#1E293B">Actor</text>
  <rect x="164" y="18.5" width="5" height="5" rx="1.5" fill="#fff" stroke="#E2E5EA" stroke-width="0.4"/>
  <rect x="165" y="19.5" width="0.8" height="3" rx="0.4" fill="#3B82F6"/>
  <text x="172" y="22.5" font-size="3.5" fill="#1E293B">Protocol</text>
  <rect x="212" y="18.5" width="5" height="5" rx="1.5" fill="#fff" stroke="#E2E5EA" stroke-width="0.4"/>
  <rect x="213" y="19.5" width="0.8" height="3" rx="0.4" fill="#F59E0B"/>
  <text x="220" y="22.5" font-size="3.5" fill="#1E293B">External</text>
  <rect x="40.8" y="84.0" width="274.4" height="40.0" rx="5" fill="#EDEEF2"/>
  <text x="312.2" y="89.0" text-anchor="end" font-size="3.5" fill="#94A3B8" font-weight="500">Protocol Core</text>
  <path d="M59.2,46.0 C59.2,70.0 87.2,70.0 87.2,94.0" fill="none" stroke="#94A3B8" stroke-width="0.5" marker-end="url(#ah)"/>
  <path d="M138.4,46.0 C138.4,70.0 87.2,70.0 87.2,94.0" fill="none" stroke="#94A3B8" stroke-width="0.5" marker-end="url(#ah)"/>
  <path d="M138.4,46.0 C138.4,70.0 184.4,70.0 184.4,94.0" fill="none" stroke="#94A3B8" stroke-width="0.5" marker-end="url(#ah)"/>
  <path d="M237.9,46.0 C237.9,70.0 275.2,70.0 275.2,94.0" fill="none" stroke="#94A3B8" stroke-width="0.5" marker-end="url(#ah)"/>
  <path d="M123.6,112.0 C160.1,130.0 208.7,130.0 245.2,114.0" fill="none" stroke="#94A3B8" stroke-width="0.5" marker-end="url(#ah)"/>
  <path d="M87.2,114.0 C87.2,135.0 153.0,135.0 153.0,156.0" fill="none" stroke="#94A3B8" stroke-width="0.5" marker-end="url(#ah)"/>
  <path d="M245.2,112.0 C238.6,126.0 229.8,126.0 223.2,114.0" fill="none" stroke="#94A3B8" stroke-width="0.5" marker-end="url(#ah)"/>
  <path d="M275.2,114.0 C275.2,135.0 153.0,135.0 153.0,156.0" fill="none" stroke="#94A3B8" stroke-width="0.5" marker-end="url(#ah)"/>
  <path d="M275.2,114.0 C275.2,135.0 247.0,135.0 247.0,156.0" fill="none" stroke="#94A3B8" stroke-width="0.5" marker-end="url(#ah)"/>
  <path d="M275.2,114.0 C275.2,135.0 329.0,135.0 329.0,156.0" fill="none" stroke="#94A3B8" stroke-width="0.5" marker-end="url(#ah)"/>
  <g filter="url(#shadow)">
    <rect x="30.0" y="32.0" width="58.4" height="14" rx="7" fill="#fff" stroke="#E2E5EA" stroke-width="0.5"/>
    <text x="59.2" y="40.8" text-anchor="middle" font-size="4.8" font-weight="600" fill="#1E293B">Operator</text>
  </g>
  <g filter="url(#shadow)">
    <rect x="110.4" y="32.0" width="56.0" height="14" rx="7" fill="#fff" stroke="#E2E5EA" stroke-width="0.5"/>
    <text x="138.4" y="40.8" text-anchor="middle" font-size="4.8" font-weight="600" fill="#1E293B">Owner</text>
  </g>
  <g filter="url(#shadow)">
    <rect x="206.3" y="32.0" width="63.2" height="14" rx="7" fill="#fff" stroke="#E2E5EA" stroke-width="0.5"/>
    <text x="237.9" y="40.8" text-anchor="middle" font-size="4.8" font-weight="600" fill="#1E293B">User</text>
  </g>
  <g filter="url(#shadow)">
    <rect x="50.8" y="94.0" width="72.8" height="20" rx="3" fill="#fff" stroke="#E2E5EA" stroke-width="0.5"/>
    <rect x="53.8" y="97.0" width="1.4" height="14" rx="0.6" fill="#3B82F6"/>
    <text x="87.2" y="103.5" text-anchor="middle" font-size="4.8" font-weight="600" fill="#1E293B">PoolFactory</text>
    <text x="87.2" y="108.5" text-anchor="middle" font-size="3.5" fill="#64748B">Registry</text>
  </g>
  <g filter="url(#shadow)">
    <rect x="245.2" y="94.0" width="60.0" height="20" rx="3" fill="#fff" stroke="#E2E5EA" stroke-width="0.5"/>
    <rect x="248.2" y="97.0" width="1.4" height="14" rx="0.6" fill="#3B82F6"/>
    <text x="275.2" y="103.5" text-anchor="middle" font-size="4.8" font-weight="600" fill="#1E293B">SwapPool</text>
    <text x="275.2" y="108.5" text-anchor="middle" font-size="3.5" fill="#64748B">1:1 AMM</text>
  </g>
  <g filter="url(#shadow)">
    <rect x="145.6" y="94.0" width="77.6" height="20" rx="3" fill="#fff" stroke="#E2E5EA" stroke-width="0.5"/>
    <rect x="148.6" y="97.0" width="1.4" height="14" rx="0.6" fill="#3B82F6"/>
    <text x="184.4" y="103.5" text-anchor="middle" font-size="4.8" font-weight="600" fill="#1E293B">FeeCollector</text>
    <text x="184.4" y="108.5" text-anchor="middle" font-size="3.5" fill="#64748B">Fee Sink</text>
  </g>
  <g filter="url(#shadow)">
    <rect x="114.2" y="156.0" width="77.6" height="20" rx="3" fill="#fff" stroke="#E2E5EA" stroke-width="0.5"/>
    <rect x="117.2" y="159.0" width="1.4" height="14" rx="0.6" fill="#3B82F6"/>
    <text x="153.0" y="165.5" text-anchor="middle" font-size="4.8" font-weight="600" fill="#1E293B">LPToken</text>
    <text x="153.0" y="170.5" text-anchor="middle" font-size="3.5" fill="#64748B">ERC-1155 LP (×2)</text>
  </g>
  <g filter="url(#shadow)">
    <rect x="217.0" y="156.0" width="60.0" height="20" rx="3" fill="#fff" stroke="#E2E5EA" stroke-width="0.5"/>
    <rect x="220.0" y="159.0" width="1.4" height="14" rx="0.6" fill="#F59E0B"/>
    <text x="247.0" y="165.5" text-anchor="middle" font-size="4.8" font-weight="600" fill="#1E293B">MarketA</text>
    <text x="247.0" y="170.5" text-anchor="middle" font-size="3.5" fill="#64748B">ERC-1155</text>
  </g>
  <g filter="url(#shadow)">
    <rect x="299.0" y="156.0" width="60.0" height="20" rx="3" fill="#fff" stroke="#E2E5EA" stroke-width="0.5"/>
    <rect x="302.0" y="159.0" width="1.4" height="14" rx="0.6" fill="#F59E0B"/>
    <text x="329.0" y="165.5" text-anchor="middle" font-size="4.8" font-weight="600" fill="#1E293B">MarketB</text>
    <text x="329.0" y="170.5" text-anchor="middle" font-size="3.5" fill="#64748B">ERC-1155</text>
  </g>
  <rect x="42.4" y="65.0" width="61.6" height="6.0" rx="1" fill="#F8F9FB"/>
  <text x="73.2" y="70.0" font-size="4" fill="#1E293B" font-weight="500" text-anchor="middle">create / pause / resolve</text>
  <rect x="91.6" y="57.0" width="42.4" height="6.0" rx="1" fill="#F8F9FB"/>
  <text x="112.8" y="62.0" font-size="4" fill="#1E293B" font-weight="500" text-anchor="middle">setFees / rescue</text>
  <rect x="143.8" y="65.0" width="35.2" height="6.0" rx="1" fill="#F8F9FB"/>
  <text x="161.4" y="70.0" font-size="4" fill="#1E293B" font-weight="500" text-anchor="middle">withdraw fees</text>
  <rect x="224.5" y="65.0" width="64.0" height="6.0" rx="1" fill="#F8F9FB"/>
  <text x="256.5" y="70.0" font-size="4" fill="#1E293B" font-weight="500" text-anchor="middle">deposit / swap / withdraw</text>
  <rect x="165.6" y="129.0" width="37.6" height="6.0" rx="1" fill="#F8F9FB"/>
  <text x="184.4" y="134.0" font-size="4" fill="#1E293B" font-weight="500" text-anchor="middle">deploy / admin</text>
  <rect x="103.7" y="130.0" width="32.8" height="6.0" rx="1" fill="#F8F9FB"/>
  <text x="120.1" y="135.0" font-size="4" fill="#1E293B" font-weight="500" text-anchor="middle">registerPool</text>
  <rect x="216.6" y="125.0" width="35.2" height="6.0" rx="1" fill="#F8F9FB"/>
  <text x="234.2" y="130.0" font-size="4" fill="#1E293B" font-weight="500" text-anchor="middle">protocol fees</text>
  <rect x="195.3" y="138.0" width="37.6" height="6.0" rx="1" fill="#F8F9FB"/>
  <text x="214.1" y="143.0" font-size="4" fill="#1E293B" font-weight="500" text-anchor="middle">mint / burn LP</text>
  <rect x="238.7" y="134.0" width="44.8" height="6.0" rx="1" fill="#F8F9FB"/>
  <text x="261.1" y="139.0" font-size="4" fill="#1E293B" font-weight="500" text-anchor="middle">transfer shares A</text>
  <rect x="279.7" y="126.0" width="44.8" height="6.0" rx="1" fill="#F8F9FB"/>
  <text x="302.1" y="131.0" font-size="4" fill="#1E293B" font-weight="500" text-anchor="middle">transfer shares B</text>
</svg>