<svg xmlns="http://www.w3.org/2000/svg" width="1007" height="645" viewBox="0 0 403 258" font-family="Arial, sans-serif">
  <defs>
    <marker id="ah" viewBox="0 0 8 6" refX="8" refY="3"
      markerWidth="4" markerHeight="3" orient="auto">
      <path d="M0.5,0.5 L7,3 L0.5,5.5" fill="none" stroke="#94A3B8"
        stroke-width="1.2" stroke-linejoin="round" stroke-linecap="round"/>
    </marker>
    <filter id="shadow" x="-6%" y="-8%" width="112%" height="128%">
      <feDropShadow dx="0" dy="0.5" stdDeviation="0.8"
        flood-color="#000" flood-opacity="0.05"/>
    </filter>
  </defs>
  <rect width="403" height="258" fill="#F8F9FB" rx="3"/>
  <text x="202" y="11" text-anchor="middle" font-size="6" font-weight="700" fill="#1E293B">Architecture</text>
  <rect x="127" y="16" width="150" height="10" rx="3" fill="#fff" stroke="#E2E5EA" stroke-width="0.4"/>
  <rect x="132" y="18.5" width="5" height="5" rx="2.5" fill="#fff" stroke="#E2E5EA" stroke-width="0.4"/>
  <text x="140" y="22.5" font-size="3.5" fill="#1E293B">Actor</text>
  <rect x="172" y="18.5" width="5" height="5" rx="1.5" fill="#fff" stroke="#E2E5EA" stroke-width="0.4"/>
  <rect x="173" y="19.5" width="0.8" height="3" rx="0.4" fill="#3B82F6"/>
  <text x="180" y="22.5" font-size="3.5" fill="#1E293B">Protocol</text>
  <rect x="220" y="18.5" width="5" height="5" rx="1.5" fill="#fff" stroke="#E2E5EA" stroke-width="0.4"/>
  <rect x="221" y="19.5" width="0.8" height="3" rx="0.4" fill="#F59E0B"/>
  <text x="228" y="22.5" font-size="3.5" fill="#1E293B">External</text>
  <rect x="28.8" y="84.0" width="354.4" height="164.0" rx="5" fill="#EDEEF2"/>
  <text x="380.2" y="89.0" text-anchor="end" font-size="3.5" fill="#94A3B8" font-weight="500">PredictSwap v3 Core</text>
  <rect x="28.8" y="208.0" width="354.4" height="40.0" rx="5" fill="#EDEEF2"/>
  <text x="380.2" y="213.0" text-anchor="end" font-size="3.5" fill="#94A3B8" font-weight="500">External Prediction Markets</text>
  <path d="M58.0,46.0 C58.0,70.0 102.6,70.0 102.6,94.0" fill="none" stroke="#94A3B8" stroke-width="0.5" marker-end="url(#ah)"/>
  <path d="M102.6,94.0 C102.6,125.0 147.3,125.0 147.3,156.0" fill="none" stroke="#94A3B8" stroke-width="0.5" marker-end="url(#ah)"/>
  <path d="M152.5,46.0 C152.5,70.0 182.7,70.0 182.7,94.0" fill="none" stroke="#94A3B8" stroke-width="0.5" marker-end="url(#ah)"/>
  <path d="M231.7,46.0 C231.7,70.0 182.7,70.0 182.7,94.0" fill="none" stroke="#94A3B8" stroke-width="0.5" marker-end="url(#ah)"/>
  <path d="M231.7,46.0 C231.7,70.0 260.1,70.0 260.1,94.0" fill="none" stroke="#94A3B8" stroke-width="0.5" marker-end="url(#ah)"/>
  <path d="M260.1,94.0 Q272.5,166.0 297.2,156.0" fill="none" stroke="#94A3B8" stroke-width="0.5" marker-end="url(#ah)"/>
  <path d="M297.2,156.0 Q276.5,166.0 334.4,218.0" fill="none" stroke="#94A3B8" stroke-width="0.5" marker-end="url(#ah)"/>
  <path d="M182.7,114.0 C182.7,135.0 147.3,135.0 147.3,156.0" fill="none" stroke="#94A3B8" stroke-width="0.5" marker-end="url(#ah)"/>
  <path d="M182.7,114.0 C182.7,135.0 230.9,135.0 230.9,156.0" fill="none" stroke="#94A3B8" stroke-width="0.5" marker-end="url(#ah)"/>
  <path d="M182.7,114.0 C182.7,135.0 316.1,135.0 316.1,156.0" fill="none" stroke="#94A3B8" stroke-width="0.5" marker-end="url(#ah)"/>
  <path d="M177.3,174.0 C183.9,192.0 192.7,192.0 199.3,176.0" fill="none" stroke="#94A3B8" stroke-width="0.5" marker-end="url(#ah)"/>
  <path d="M177.3,174.0 C209.5,196.0 252.3,196.0 284.5,176.0" fill="none" stroke="#94A3B8" stroke-width="0.5" marker-end="url(#ah)"/>
  <path d="M147.3,176.0 C147.3,197.0 92.0,197.0 92.0,218.0" fill="none" stroke="#94A3B8" stroke-width="0.5" marker-end="url(#ah)"/>
  <path d="M147.3,176.0 C147.3,197.0 220.4,197.0 220.4,218.0" fill="none" stroke="#94A3B8" stroke-width="0.5" marker-end="url(#ah)"/>
  <path d="M147.3,176.0 C147.3,197.0 334.4,197.0 334.4,218.0" fill="none" stroke="#94A3B8" stroke-width="0.5" marker-end="url(#ah)"/>
  <g filter="url(#shadow)">
    <rect x="30.0" y="32.0" width="56.0" height="14" rx="7" fill="#fff" stroke="#E2E5EA" stroke-width="0.5"/>
    <text x="58.0" y="40.8" text-anchor="middle" font-size="4.8" font-weight="600" fill="#1E293B">User</text>
  </g>
  <g filter="url(#shadow)">
    <rect x="123.3" y="32.0" width="58.4" height="14" rx="7" fill="#fff" stroke="#E2E5EA" stroke-width="0.5"/>
    <text x="152.5" y="40.8" text-anchor="middle" font-size="4.8" font-weight="600" fill="#1E293B">Operator</text>
  </g>
  <g filter="url(#shadow)">
    <rect x="203.7" y="32.0" width="56.0" height="14" rx="7" fill="#fff" stroke="#E2E5EA" stroke-width="0.5"/>
    <text x="231.7" y="40.8" text-anchor="middle" font-size="4.8" font-weight="600" fill="#1E293B">Owner</text>
  </g>
  <g filter="url(#shadow)">
    <rect x="146.3" y="94.0" width="72.8" height="20" rx="3" fill="#fff" stroke="#E2E5EA" stroke-width="0.5"/>
    <rect x="149.3" y="97.0" width="1.4" height="14" rx="0.6" fill="#3B82F6"/>
    <text x="182.7" y="105.8" text-anchor="middle" font-size="4.8" font-weight="600" fill="#1E293B">PoolFactory</text>
  </g>
  <g filter="url(#shadow)">
    <rect x="117.3" y="156.0" width="60.0" height="20" rx="3" fill="#fff" stroke="#E2E5EA" stroke-width="0.5"/>
    <rect x="120.3" y="159.0" width="1.4" height="14" rx="0.6" fill="#3B82F6"/>
    <text x="147.3" y="167.8" text-anchor="middle" font-size="4.8" font-weight="600" fill="#1E293B">SwapPool</text>
  </g>
  <g filter="url(#shadow)">
    <rect x="199.3" y="156.0" width="63.2" height="20" rx="3" fill="#fff" stroke="#E2E5EA" stroke-width="0.5"/>
    <rect x="202.3" y="159.0" width="1.4" height="14" rx="0.6" fill="#3B82F6"/>
    <text x="230.9" y="167.8" text-anchor="middle" font-size="4.8" font-weight="600" fill="#1E293B">LPToken A</text>
  </g>
  <g filter="url(#shadow)">
    <rect x="284.5" y="156.0" width="63.2" height="20" rx="3" fill="#fff" stroke="#E2E5EA" stroke-width="0.5"/>
    <rect x="287.5" y="159.0" width="1.4" height="14" rx="0.6" fill="#3B82F6"/>
    <text x="316.1" y="167.8" text-anchor="middle" font-size="4.8" font-weight="600" fill="#1E293B">LPToken B</text>
  </g>
  <g filter="url(#shadow)">
    <rect x="295.6" y="218.0" width="77.6" height="20" rx="3" fill="#fff" stroke="#E2E5EA" stroke-width="0.5"/>
    <rect x="298.6" y="221.0" width="1.4" height="14" rx="0.6" fill="#3B82F6"/>
    <text x="334.4" y="229.8" text-anchor="middle" font-size="4.8" font-weight="600" fill="#1E293B">FeeCollector</text>
  </g>
  <g filter="url(#shadow)">
    <rect x="38.8" y="218.0" width="106.4" height="20" rx="3" fill="#fff" stroke="#E2E5EA" stroke-width="0.5"/>
    <rect x="41.8" y="221.0" width="1.4" height="14" rx="0.6" fill="#F59E0B"/>
    <text x="92.0" y="229.8" text-anchor="middle" font-size="4.8" font-weight="600" fill="#1E293B">Market A (ERC1155)</text>
  </g>
  <g filter="url(#shadow)">
    <rect x="167.2" y="218.0" width="106.4" height="20" rx="3" fill="#fff" stroke="#E2E5EA" stroke-width="0.5"/>
    <rect x="170.2" y="221.0" width="1.4" height="14" rx="0.6" fill="#F59E0B"/>
    <text x="220.4" y="229.8" text-anchor="middle" font-size="4.8" font-weight="600" fill="#1E293B">Market B (ERC1155)</text>
  </g>
  <rect x="93.0" y="120.0" width="64.0" height="6.0" rx="1" fill="#EDEEF2"/>
  <text x="125.0" y="125.0" font-size="4" fill="#1E293B" font-weight="500" text-anchor="middle">deposit / swap / withdraw</text>
  <rect x="136.8" y="65.0" width="61.6" height="6.0" rx="1" fill="#F8F9FB"/>
  <text x="167.6" y="70.0" font-size="4" fill="#1E293B" font-weight="500" text-anchor="middle">create / pause / resolve</text>
  <rect x="186.0" y="57.0" width="42.4" height="6.0" rx="1" fill="#F8F9FB"/>
  <text x="207.2" y="62.0" font-size="4" fill="#1E293B" font-weight="500" text-anchor="middle">setFees / rescue</text>
  <rect x="279.3" y="179.3" width="35.2" height="6.0" rx="1" fill="#EDEEF2"/>
  <text x="296.9" y="184.3" font-size="4" fill="#1E293B" font-weight="500" text-anchor="middle">withdraw fees</text>
  <rect x="139.0" y="130.0" width="52.0" height="6.0" rx="1" fill="#EDEEF2"/>
  <text x="165.0" y="135.0" font-size="4" fill="#1E293B" font-weight="500" text-anchor="middle">deploy + admin relay</text>
  <rect x="198.4" y="128.0" width="32.8" height="6.0" rx="1" fill="#EDEEF2"/>
  <text x="214.8" y="133.0" font-size="4" fill="#1E293B" font-weight="500" text-anchor="middle">registerPool</text>
  <rect x="241.0" y="128.0" width="32.8" height="6.0" rx="1" fill="#EDEEF2"/>
  <text x="257.4" y="133.0" font-size="4" fill="#1E293B" font-weight="500" text-anchor="middle">registerPool</text>
  <rect x="173.1" y="191.0" width="30.4" height="6.0" rx="1" fill="#EDEEF2"/>
  <text x="188.3" y="196.0" font-size="4" fill="#1E293B" font-weight="500" text-anchor="middle">mint / burn</text>
  <rect x="215.7" y="195.0" width="30.4" height="6.0" rx="1" fill="#EDEEF2"/>
  <text x="230.9" y="200.0" font-size="4" fill="#1E293B" font-weight="500" text-anchor="middle">mint / burn</text>
  <rect x="96.0" y="192.0" width="47.2" height="6.0" rx="1" fill="#EDEEF2"/>
  <text x="119.6" y="197.0" font-size="4" fill="#1E293B" font-weight="500" text-anchor="middle">pull / push shares</text>
  <rect x="160.2" y="184.0" width="47.2" height="6.0" rx="1" fill="#EDEEF2"/>
  <text x="183.8" y="189.0" font-size="4" fill="#1E293B" font-weight="500" text-anchor="middle">pull / push shares</text>
  <rect x="214.8" y="188.0" width="52.0" height="6.0" rx="1" fill="#EDEEF2"/>
  <text x="240.8" y="193.0" font-size="4" fill="#1E293B" font-weight="500" text-anchor="middle">push fee + recordFee</text>
</svg>